<svg width="30" height="29" viewBox="0 0 30 29" fill="none" xmlns="http://www.w3.org/2000/svg">
<path fill-rule="evenodd" clip-rule="evenodd" d="M15.0002 20.4648C18.3142 20.4648 21.0002 17.7788 21.0002 14.4648C21.0002 11.1508 18.3142 8.4648 15.0002 8.4648C11.6862 8.4648 9.00024 11.1508 9.00024 14.4648C9.00024 17.7788 11.6862 20.4648 15.0002 20.4648Z" stroke="#B0D2FF" stroke-width="2.5" stroke-linecap="round" stroke-linejoin="round"/>
<path fill-rule="evenodd" clip-rule="evenodd" d="M5.97425 20.8308L5.82425 23.1508C5.81425 23.3008 5.83525 23.4498 5.88925 23.5888C5.94325 23.7278 6.02625 23.8538 6.13425 23.9568C7.57225 25.3208 9.31225 26.3258 11.2133 26.8888C11.3563 26.9308 11.5073 26.9408 11.6543 26.9168C11.8013 26.8938 11.9422 26.8388 12.0652 26.7548L14.0002 25.4648H16.0002L17.9353 26.7548C18.0583 26.8388 18.1992 26.8948 18.3452 26.9168C18.4932 26.9408 18.6443 26.9308 18.7873 26.8888C20.6873 26.3258 22.4283 25.3208 23.8673 23.9568C23.9743 23.8538 24.0572 23.7278 24.1112 23.5888C24.1652 23.4488 24.1873 23.2998 24.1763 23.1518L24.0262 20.8318L25.0262 19.0988L27.1112 18.0688C27.2452 18.0028 27.3633 17.9088 27.4573 17.7938C27.5513 17.6778 27.6172 17.5418 27.6532 17.3978C28.1162 15.4698 28.1162 13.4598 27.6532 11.5328C27.6182 11.3878 27.5513 11.2528 27.4573 11.1368C27.3633 11.0208 27.2452 10.9268 27.1112 10.8618L25.0262 9.83179L24.0262 8.09879L24.1763 5.7788C24.1863 5.6288 24.1652 5.4798 24.1112 5.3408C24.0582 5.2018 23.9742 5.0758 23.8662 4.9728C22.4282 3.6088 20.6883 2.6038 18.7873 2.0408C18.6443 1.9988 18.4933 1.9898 18.3463 2.0128C18.1993 2.0358 18.0583 2.0908 17.9353 2.1748L16.0002 3.4648H14.0002L12.0652 2.1748C11.9422 2.0908 11.8022 2.0358 11.6552 2.0128C11.5072 1.9888 11.3563 1.9988 11.2133 2.0408C9.31325 2.6038 7.57325 3.6088 6.13325 4.9728C6.02625 5.0758 5.94325 5.2028 5.88925 5.3408C5.83625 5.4808 5.81325 5.6298 5.82425 5.7778L5.97425 8.0978L4.97425 9.8308L2.88925 10.8608C2.75525 10.9268 2.63725 11.0208 2.54325 11.1358C2.44925 11.2518 2.38325 11.3878 2.34725 11.5318C1.88425 13.4598 1.88425 15.4698 2.34725 17.3978C2.38225 17.5418 2.44925 17.6778 2.54325 17.7928C2.63725 17.9088 2.75525 18.0028 2.88925 18.0678L4.97425 19.0988L5.97425 20.8308V20.8308Z" stroke="#2E9DFF" stroke-width="2.5"/>
</svg>
